<svg width="64" height="64" viewBox="0 0 64 64" fill="none" xmlns="http://www.w3.org/2000/svg" role="img" aria-label="Open Credit Scoring mark"><path fill-rule="evenodd" clip-rule="evenodd" d="M30.88 3.20L31.04 3.04L32.96 3.04L33.28 3.36L36.16 3.36L36.48 3.68L38.08 3.68L38.40 4.00L39.36 4.00L39.68 4.32L40.32 4.32L40.64 4.64L42.24 4.96L42.56 5.28L42.88 5.28L43.20 5.60L43.84 5.60L44.16 5.92L45.76 6.56L46.40 7.20L47.36 7.52L49.28 9.12L49.60 9.12L51.20 10.72L51.52 10.72L54.88 14.40L54.88 14.72L56.80 17.28L56.80 17.60L58.72 21.12L58.72 21.76L59.04 22.08L59.04 22.72L59.36 23.04L59.68 24.64L60.00 24.96L60.00 26.24L60.32 26.56L60.32 28.16L60.64 28.48L60.64 35.52L60.32 35.84L60.32 37.44L60.00 37.76L59.68 40.00L59.36 40.32L59.36 40.96L59.04 41.28L58.72 42.88L58.40 43.20L57.12 46.08L56.48 46.72L56.48 47.04L55.52 48.32L55.52 48.64L54.56 49.60L54.56 49.92L49.92 54.56L49.60 54.56L48.64 55.52L48.32 55.52L47.68 56.16L46.72 56.48L46.08 57.12L45.76 57.12L42.88 58.72L42.24 58.72L41.92 59.04L41.28 59.04L40.96 59.36L40.32 59.36L40.00 59.68L37.76 60.00L37.44 60.32L35.84 60.32L35.52 60.64L28.48 60.64L28.16 60.32L26.56 60.32L26.24 60.00L24.96 60.00L24.64 59.68L24.00 59.68L23.68 59.36L22.72 59.36L21.76 58.72L21.12 58.72L20.80 58.40L16.64 56.48L14.72 54.88L14.40 54.88L13.12 53.60L12.80 53.60L8.80 49.28L8.80 48.96L8.16 48.32L8.16 48.00L7.52 47.36L7.20 46.40L6.56 45.76L6.56 45.44L5.28 43.20L5.28 42.56L4.96 42.24L4.96 41.60L4.64 41.28L4.64 40.64L4.32 40.32L4.32 39.68L4.00 39.36L4.00 38.40L3.68 38.08L3.68 36.80L3.36 36.48L3.36 33.92L3.04 33.60L3.04 30.40L3.36 30.08L3.36 27.52L1.28 26.40L0.64 26.40L0.16 25.92L0.64 25.44L2.24 24.80L2.88 24.16L3.84 23.84L4.48 23.20L6.08 22.56L6.72 21.92L8.32 21.28L8.96 20.64L9.92 20.32L10.56 19.68L12.16 19.04L12.80 18.40L13.12 18.40L14.72 17.44L14.88 18.24L15.20 18.56L15.20 19.52L15.52 19.84L15.52 20.80L15.84 21.12L15.84 22.08L16.16 22.40L16.16 23.36L16.48 23.68L16.48 24.64L16.80 24.96L16.80 25.92L17.12 26.24L17.12 27.20L17.44 27.52L17.44 28.48L17.76 28.80L17.76 29.76L18.08 30.08L18.08 31.04L18.40 31.36L18.40 32.32L18.72 32.64L18.72 33.60L17.92 33.76L17.60 33.44L17.28 33.44L16.32 32.80L15.68 32.80L14.72 32.16L14.56 33.28L14.88 33.60L14.88 35.52L15.20 35.84L15.20 36.48L15.52 36.80L15.52 37.76L15.84 38.08L15.84 38.40L16.16 38.72L17.12 40.96L18.72 42.88L18.72 43.20L20.80 45.28L21.12 45.28L23.04 46.88L23.36 46.88L25.60 48.16L26.24 48.16L26.56 48.48L27.52 48.48L27.84 48.80L28.80 48.80L29.12 49.12L34.56 49.12L34.88 48.80L36.16 48.80L36.48 48.48L38.08 48.16L39.04 47.52L39.68 47.52L40.32 46.88L40.64 46.88L41.92 45.92L42.24 45.92L45.92 42.24L45.92 41.92L46.56 41.28L46.88 40.32L47.52 39.68L47.52 39.04L48.16 38.08L48.16 37.44L48.48 37.12L48.48 36.48L48.80 36.16L48.80 34.88L49.12 34.56L49.12 29.12L48.80 28.80L48.48 26.56L47.84 25.60L47.84 24.96L47.52 24.64L46.88 23.04L44.96 20.80L44.96 20.48L41.92 17.76L41.60 17.76L40.96 17.12L40.64 17.12L38.40 15.84L37.76 15.84L37.44 15.52L36.80 15.52L36.48 15.20L35.52 15.20L35.20 14.88L33.28 14.88L32.96 14.56L31.04 14.56L30.72 14.88L28.48 14.88L28.16 15.20L27.20 15.20L26.88 15.52L26.24 15.52L25.28 16.16L24.64 16.16L23.36 17.12L22.40 17.44L20.00 19.52L18.40 21.12L18.40 21.44L17.60 22.24L17.12 21.44L17.12 20.48L16.80 20.16L16.80 19.20L16.48 18.88L16.48 17.92L16.16 17.60L16.16 16.64L15.84 16.32L15.84 15.36L15.36 15.20L14.72 15.84L13.12 16.48L12.48 17.12L11.52 17.44L10.88 18.08L9.28 18.72L8.64 19.36L7.68 19.68L7.04 20.32L6.72 20.32L5.76 20.96L5.28 20.80L5.60 20.48L6.88 17.60L7.52 16.96L7.84 16.00L8.80 15.04L8.80 14.72L9.76 13.76L9.76 13.44L13.44 9.76L13.76 9.76L16.00 7.84L16.96 7.52L17.60 6.88L19.20 6.24L19.52 5.92L19.84 5.92L20.80 5.28L21.44 5.28L22.40 4.64L23.36 4.64L23.68 4.32L24.32 4.32L24.64 4.00L25.60 4.00L25.92 3.68L27.20 3.68L27.52 3.36L30.72 3.36Z" fill="#FFFFFF"></path></svg>